# xmcd
#
# Track frame offsets: 
#        150
#        35500
#        60567
#        89845
#        124942
#        136555
#        168330
#        201467
#        222532
#        257845
#
# Disc length: 3694 seconds
#
# Revision: 1
# Processed by: cddbd v1.5.2PL0 Copyright (c) Steve Scherf et al.
# Submitted via: ExactAudioCopyFreeDBPlugin 1.0
#
DISCID=990e6c0a
DTITLE=Ted Howe - Revealing the Jazz Soul of Elton John
DYEAR=2005
DGENRE=Jazz
TTITLE0=Philadelphia Freedom
TTITLE1=Benny and the Jets
TTITLE2=All the Girls Love Alice
TTITLE3=Border Song
TTITLE4=Blue Eyes
TTITLE5=Circle of Life
TTITLE6=Carla Etude
TTITLE7=Ego
TTITLE8=Sorry Seems to be the Hardest Word
TTITLE9=Your Song
EXTD=YEAR: 2005
EXTT0=
EXTT1=
EXTT2=
EXTT3=
EXTT4=
EXTT5=
EXTT6=
EXTT7=
EXTT8=
EXTT9=
PLAYORDER=
